<svg data-v-fde0c5aa="" xmlns="http://www.w3.org/2000/svg" viewBox="0 0 300 300" class="font"><!----><defs data-v-fde0c5aa=""><!----></defs><rect data-v-fde0c5aa="" fill="#353922" x="0" y="0" width="300px" height="300px" class="logo-background-square"></rect><defs data-v-fde0c5aa=""><!----></defs><g data-v-fde0c5aa="" id="74ab2bb2-75a3-4a59-a672-1ae07f1f4dd7" fill="#98D82C" transform="matrix(2.680638489314804,0,0,2.680638489314804,38.8741317897498,126.74546123301687)"><path d="M0.57 7.49Q0.57 6.27 1.36 5.60Q2.14 4.93 3.56 4.93L3.56 4.93Q4.83 4.93 6.01 5.31L6.01 5.31L5.85 7.34L5.11 7.34L4.80 6.06Q4.63 6.01 4.29 5.96Q3.95 5.91 3.72 5.91L3.72 5.91Q3.02 5.91 2.60 6.17Q2.17 6.43 2.17 7.03L2.17 7.03Q2.17 7.52 2.48 7.83Q2.80 8.15 3.40 8.40L3.40 8.40L4.68 8.93Q5.53 9.30 5.92 9.86Q6.30 10.42 6.30 11.21L6.30 11.21Q6.30 12.45 5.46 13.15Q4.62 13.85 3.01 13.85L3.01 13.85Q2.38 13.85 1.67 13.73Q0.97 13.62 0.42 13.41L0.42 13.41L0.63 11.41L1.41 11.41L1.64 12.63Q2.37 12.84 2.98 12.84L2.98 12.84Q3.72 12.84 4.15 12.56Q4.58 12.28 4.58 11.76L4.58 11.76Q4.58 11.28 4.30 11.00Q4.03 10.72 3.37 10.43L3.37 10.43L2.09 9.87Q1.47 9.60 1.02 9.02Q0.57 8.43 0.57 7.49L0.57 7.49ZM15.30 13.72L11.47 13.72L11.47 13.09L12.31 12.74L12.31 8.62Q12.31 8.13 12.13 7.98Q11.96 7.83 11.40 7.83L11.40 7.83Q10.58 7.83 10.00 7.99L10.00 7.99L10.00 12.74L10.84 13.09L10.84 13.72L7.01 13.72L7.01 13.02L8.11 12.74L8.11 4.86L7.01 4.70L7.01 4.03L9.38 3.49L10.00 3.49L10.00 7.25Q10.40 7.06 11.16 6.87Q11.91 6.69 12.49 6.69L12.49 6.69Q13.23 6.69 13.71 7.05Q14.20 7.41 14.20 8.15L14.20 8.15L14.20 12.74L15.30 13.09L15.30 13.72ZM19.19 13.86Q15.83 13.86 15.83 10.30L15.83 10.30Q15.83 8.37 16.73 7.53Q17.63 6.69 19.05 6.69L19.05 6.69Q20.52 6.69 21.20 7.34Q21.87 7.99 21.87 9.38L21.87 9.38Q21.87 9.98 21.81 10.30L21.81 10.30L17.86 10.30L17.86 10.64Q17.86 11.87 18.33 12.34Q18.79 12.81 19.75 12.81L19.75 12.81Q20.48 12.81 21.69 12.47L21.69 12.47L21.80 13.09Q20.78 13.86 19.19 13.86L19.19 13.86ZM17.89 9.55L19.96 9.39L19.96 9.10Q19.96 8.40 19.80 8.03Q19.63 7.66 19.12 7.66L19.12 7.66Q18.42 7.66 18.17 8.11Q17.92 8.57 17.89 9.55L17.89 9.55ZM26.50 13.72L22.43 13.72L22.43 13.02L23.52 12.74L23.52 4.86L22.43 4.70L22.43 4.03L24.79 3.49L25.41 3.49L25.41 12.74L26.50 13.02L26.50 13.72ZM27.15 13.72L27.15 13.02L28.24 12.74L28.24 7.84L27.08 7.84L27.08 7.17L28.24 6.62Q28.24 5.14 29.08 4.31Q29.92 3.49 31.46 3.49L31.46 3.49Q31.84 3.49 32.30 3.60Q32.77 3.71 32.90 3.82L32.90 3.82L32.63 5.85L31.72 5.85L31.47 4.73Q31.25 4.65 31.05 4.65L31.05 4.65Q30.45 4.65 30.27 5.09Q30.10 5.53 30.10 6.43L30.10 6.43L30.10 6.83L32.20 6.83L32.20 7.94L30.13 7.81L30.13 12.68L31.78 12.95L31.78 13.72L27.15 13.72ZM34.57 7.35L34.47 5.12L41.82 5.12L41.73 7.35L40.94 7.35L40.66 6.08L39.09 6.08L39.09 12.75L40.28 13.09L40.28 13.72L36.02 13.72L36.02 13.09L37.20 12.75L37.20 6.08L35.60 6.08L35.34 7.35L34.57 7.35ZM45.28 6.69Q47.07 6.69 47.91 7.69Q48.76 8.68 48.76 10.30L48.76 10.30Q48.76 11.87 47.91 12.87Q47.05 13.86 45.28 13.86L45.28 13.86Q43.54 13.86 42.69 12.87Q41.85 11.87 41.85 10.30L41.85 10.30Q41.85 8.68 42.68 7.69Q43.51 6.69 45.28 6.69L45.28 6.69ZM46.73 10.28Q46.73 9.00 46.41 8.32Q46.09 7.63 45.25 7.63L45.25 7.63Q44.46 7.63 44.17 8.32Q43.88 9.00 43.88 10.28L43.88 10.28Q43.88 11.54 44.19 12.22Q44.51 12.91 45.33 12.91L45.33 12.91Q46.14 12.91 46.44 12.23Q46.73 11.55 46.73 10.28L46.73 10.28ZM51.55 7.35L51.45 5.12L58.80 5.12L58.72 7.35L57.92 7.35L57.64 6.08L56.07 6.08L56.07 12.75L57.26 13.09L57.26 13.72L53.00 13.72L53.00 13.09L54.18 12.75L54.18 6.08L52.58 6.08L52.32 7.35L51.55 7.35ZM61.46 7.76Q60.93 7.76 60.45 7.92L60.45 7.92L60.14 9.10L59.32 9.10L59.08 7.21Q60.48 6.69 61.98 6.69L61.98 6.69Q63.11 6.69 63.68 7.07Q64.25 7.45 64.25 8.44L64.25 8.44L64.25 12.56L65.34 12.95L65.34 13.55Q64.78 13.69 64.47 13.74Q64.16 13.79 63.80 13.79L63.80 13.79Q63.31 13.79 62.91 13.60Q62.51 13.41 62.40 13.05L62.40 13.05Q61.84 13.47 61.36 13.66Q60.89 13.86 60.33 13.86L60.33 13.86Q59.56 13.86 59.11 13.40Q58.67 12.94 58.67 12.14L58.67 12.14Q58.67 11.47 59.09 10.89Q59.50 10.30 60.47 10.11L60.47 10.11L62.36 9.72L62.36 8.74Q62.36 8.19 62.15 7.97Q61.95 7.76 61.46 7.76L61.46 7.76ZM61.52 10.74Q60.97 10.88 60.75 11.17Q60.52 11.47 60.52 11.94L60.52 11.94Q60.52 12.73 61.25 12.73L61.25 12.73Q61.52 12.73 61.83 12.61Q62.15 12.49 62.36 12.35L62.36 12.35L62.36 10.53L61.52 10.74ZM69.71 13.72L65.63 13.72L65.63 13.02L66.72 12.74L66.72 4.86L65.63 4.70L65.63 4.03L68.00 3.49L68.61 3.49L68.61 12.74L69.71 13.02L69.71 13.72ZM73.64 13.86Q70.28 13.86 70.28 10.30L70.28 10.30Q70.28 8.37 71.18 7.53Q72.07 6.69 73.50 6.69L73.50 6.69Q74.97 6.69 75.64 7.34Q76.31 7.99 76.31 9.38L76.31 9.38Q76.31 9.98 76.26 10.30L76.26 10.30L72.31 10.30L72.31 10.64Q72.31 11.87 72.77 12.34Q73.23 12.81 74.20 12.81L74.20 12.81Q74.93 12.81 76.13 12.47L76.13 12.47L76.24 13.09Q75.22 13.86 73.64 13.86L73.64 13.86ZM72.34 9.55L74.41 9.39L74.41 9.10Q74.41 8.40 74.24 8.03Q74.07 7.66 73.57 7.66L73.57 7.66Q72.87 7.66 72.62 8.11Q72.37 8.57 72.34 9.55L72.34 9.55ZM79.97 7.63Q79.44 7.63 79.13 7.83Q78.82 8.04 78.82 8.39L78.82 8.39Q78.82 8.68 78.97 8.88Q79.11 9.07 79.48 9.20L79.48 9.20L81.07 9.70Q81.80 9.93 82.14 10.38Q82.49 10.84 82.49 11.68L82.49 11.68Q82.49 12.68 81.72 13.27Q80.95 13.86 79.58 13.86L79.58 13.86Q79.03 13.86 78.38 13.77Q77.73 13.68 77.24 13.51L77.24 13.51L77.41 11.56L78.22 11.56L78.51 12.74Q78.99 12.91 79.52 12.91L79.52 12.91Q80.89 12.91 80.89 12.05L80.89 12.05Q80.89 11.75 80.73 11.61Q80.57 11.47 80.12 11.31L80.12 11.31L78.60 10.79Q77.92 10.57 77.59 10.12Q77.25 9.66 77.25 8.90L77.25 8.90Q77.25 7.87 77.94 7.28Q78.62 6.69 80.00 6.69L80.00 6.69Q80.54 6.69 81.12 6.80Q81.70 6.90 82.19 7.10L82.19 7.10L82.00 8.86L81.21 8.86L80.93 7.83Q80.70 7.73 80.49 7.68Q80.28 7.63 79.97 7.63L79.97 7.63Z"></path></g><!----><!----></svg>